<?xml version="1.0" encoding="UTF-8"?>
<svg xmlns="http://www.w3.org/2000/svg" viewBox="0 0 1200 675" width="1200" height="675" role="img" aria-labelledby="t">
<title id="t">Evals</title>
<defs>
<pattern id="hx" width="51.96" height="90" patternUnits="userSpaceOnUse"><g fill="none" stroke="#ffffff" stroke-opacity=".035" stroke-width="1"><polygon points="0.0,-30.0 26.0,-15.0 26.0,15.0 0.0,30.0 -26.0,15.0 -26.0,-15.0"/><polygon points="52.0,-30.0 77.9,-15.0 77.9,15.0 52.0,30.0 26.0,15.0 26.0,-15.0"/><polygon points="26.0,15.0 52.0,30.0 52.0,60.0 26.0,75.0 -0.0,60.0 0.0,30.0"/><polygon points="0.0,60.0 26.0,75.0 26.0,105.0 0.0,120.0 -26.0,105.0 -26.0,75.0"/><polygon points="52.0,60.0 77.9,75.0 77.9,105.0 52.0,120.0 26.0,105.0 26.0,75.0"/></g></pattern>
<radialGradient id="glow" cx="0.5" cy="0.55" r=".55"><stop offset="0" stop-color="#8b5cf6" stop-opacity=".26"/><stop offset=".6" stop-color="#8b5cf6" stop-opacity=".06"/><stop offset="1" stop-color="#8b5cf6" stop-opacity="0"/></radialGradient>
<linearGradient id="fade" x1="0" y1="0" x2="0" y2="1"><stop offset="0" stop-color="#0d1117" stop-opacity="0"/><stop offset="1" stop-color="#0d1117" stop-opacity=".3"/></linearGradient>
<marker id="ah" viewBox="0 0 12 12" refX="10" refY="6" markerWidth="14" markerHeight="14" markerUnits="userSpaceOnUse" orient="auto"><path d="M1,1 L11,6 L1,11 L3.5,6 z" fill="#a78bfa"/></marker>
<marker id="ahA" viewBox="0 0 12 12" refX="10" refY="6" markerWidth="14" markerHeight="14" markerUnits="userSpaceOnUse" orient="auto"><path d="M1,1 L11,6 L1,11 L3.5,6 z" fill="#fbbf24"/></marker>
<marker id="ahG" viewBox="0 0 12 12" refX="10" refY="6" markerWidth="14" markerHeight="14" markerUnits="userSpaceOnUse" orient="auto"><path d="M1,1 L11,6 L1,11 L3.5,6 z" fill="#4ade80"/></marker>

</defs>
<rect width="1200" height="675" fill="#0d1117"/>
<rect width="1200" height="675" fill="url(#hx)"/>
<rect width="1200" height="675" fill="url(#glow)"/>
<rect x="90" y="78" width="52" height="52" rx="10" fill="#161b22" stroke="#a78bfa" stroke-opacity="0.45" stroke-width="1.6"/><path d="M105 105l7 7 15 -15" fill="none" stroke="#a78bfa" stroke-opacity=".8" stroke-width="2.4" stroke-linecap="round" stroke-linejoin="round"/><line x1="144" y1="104" x2="164" y2="104" stroke="#a78bfa" stroke-opacity=".3" stroke-width="1.5"/><rect x="166" y="78" width="52" height="52" rx="10" fill="#161b22" stroke="#a78bfa" stroke-opacity="0.45" stroke-width="1.6"/><path d="M181 105l7 7 15 -15" fill="none" stroke="#a78bfa" stroke-opacity=".8" stroke-width="2.4" stroke-linecap="round" stroke-linejoin="round"/><line x1="220" y1="104" x2="240" y2="104" stroke="#a78bfa" stroke-opacity=".3" stroke-width="1.5"/><rect x="242" y="78" width="52" height="52" rx="10" fill="#161b22" stroke="#a78bfa" stroke-opacity="0.45" stroke-width="1.6"/><path d="M257 105l7 7 15 -15" fill="none" stroke="#a78bfa" stroke-opacity=".8" stroke-width="2.4" stroke-linecap="round" stroke-linejoin="round"/><line x1="296" y1="104" x2="316" y2="104" stroke="#a78bfa" stroke-opacity=".3" stroke-width="1.5"/><rect x="318" y="78" width="52" height="52" rx="10" fill="#161b22" stroke="#a78bfa" stroke-opacity="0.45" stroke-width="1.6"/><path d="M333 105l7 7 15 -15" fill="none" stroke="#a78bfa" stroke-opacity=".8" stroke-width="2.4" stroke-linecap="round" stroke-linejoin="round"/><line x1="372" y1="104" x2="392" y2="104" stroke="#a78bfa" stroke-opacity=".3" stroke-width="1.5"/><rect x="394" y="78" width="52" height="52" rx="10" fill="#2a2619" stroke="#fbbf24" stroke-opacity="0.8" stroke-width="1.6"/><path d="M412 96l16 16M428 96l-16 16" stroke="#fbbf24" stroke-width="2.4" stroke-linecap="round"/><line x1="448" y1="104" x2="468" y2="104" stroke="#a78bfa" stroke-opacity=".3" stroke-width="1.5"/><rect x="470" y="78" width="52" height="52" rx="10" fill="#161b22" stroke="#a78bfa" stroke-opacity="0.45" stroke-width="1.6"/><path d="M485 105l7 7 15 -15" fill="none" stroke="#a78bfa" stroke-opacity=".8" stroke-width="2.4" stroke-linecap="round" stroke-linejoin="round"/><line x1="524" y1="104" x2="544" y2="104" stroke="#a78bfa" stroke-opacity=".3" stroke-width="1.5"/><rect x="546" y="78" width="52" height="52" rx="10" fill="#161b22" stroke="#a78bfa" stroke-opacity="0.45" stroke-width="1.6"/><path d="M561 105l7 7 15 -15" fill="none" stroke="#a78bfa" stroke-opacity=".8" stroke-width="2.4" stroke-linecap="round" stroke-linejoin="round"/><line x1="600" y1="104" x2="620" y2="104" stroke="#a78bfa" stroke-opacity=".3" stroke-width="1.5"/><rect x="622" y="78" width="52" height="52" rx="10" fill="#161b22" stroke="#a78bfa" stroke-opacity="0.45" stroke-width="1.6"/><path d="M637 105l7 7 15 -15" fill="none" stroke="#a78bfa" stroke-opacity=".8" stroke-width="2.4" stroke-linecap="round" stroke-linejoin="round"/><line x1="676" y1="104" x2="696" y2="104" stroke="#a78bfa" stroke-opacity=".3" stroke-width="1.5"/><rect x="698" y="78" width="52" height="52" rx="10" fill="#161b22" stroke="#a78bfa" stroke-opacity="0.45" stroke-width="1.6"/><path d="M713 105l7 7 15 -15" fill="none" stroke="#a78bfa" stroke-opacity=".8" stroke-width="2.4" stroke-linecap="round" stroke-linejoin="round"/><line x1="752" y1="104" x2="772" y2="104" stroke="#a78bfa" stroke-opacity=".3" stroke-width="1.5"/><rect x="774" y="78" width="52" height="52" rx="10" fill="#161b22" stroke="#a78bfa" stroke-opacity="0.45" stroke-width="1.6"/><path d="M789 105l7 7 15 -15" fill="none" stroke="#a78bfa" stroke-opacity=".8" stroke-width="2.4" stroke-linecap="round" stroke-linejoin="round"/><line x1="828" y1="104" x2="848" y2="104" stroke="#a78bfa" stroke-opacity=".3" stroke-width="1.5"/><rect x="850" y="78" width="52" height="52" rx="10" fill="#2a2619" stroke="#fbbf24" stroke-opacity="0.8" stroke-width="1.6"/><path d="M868 96l16 16M884 96l-16 16" stroke="#fbbf24" stroke-width="2.4" stroke-linecap="round"/><line x1="904" y1="104" x2="924" y2="104" stroke="#a78bfa" stroke-opacity=".3" stroke-width="1.5"/><rect x="926" y="78" width="52" height="52" rx="10" fill="#161b22" stroke="#a78bfa" stroke-opacity="0.45" stroke-width="1.6"/><path d="M941 105l7 7 15 -15" fill="none" stroke="#a78bfa" stroke-opacity=".8" stroke-width="2.4" stroke-linecap="round" stroke-linejoin="round"/><line x1="980" y1="104" x2="1000" y2="104" stroke="#a78bfa" stroke-opacity=".3" stroke-width="1.5"/><rect x="1002" y="78" width="52" height="52" rx="10" fill="#161b22" stroke="#a78bfa" stroke-opacity="0.45" stroke-width="1.6"/><path d="M1017 105l7 7 15 -15" fill="none" stroke="#a78bfa" stroke-opacity=".8" stroke-width="2.4" stroke-linecap="round" stroke-linejoin="round"/><line x1="1056" y1="104" x2="1076" y2="104" stroke="#a78bfa" stroke-opacity=".3" stroke-width="1.5"/><rect x="1078" y="78" width="52" height="52" rx="10" fill="#161b22" stroke="#a78bfa" stroke-opacity="0.45" stroke-width="1.6"/><path d="M1093 105l7 7 15 -15" fill="none" stroke="#a78bfa" stroke-opacity=".8" stroke-width="2.4" stroke-linecap="round" stroke-linejoin="round"/><line x1="80" y1="520" x2="1120" y2="520" stroke="#ffffff" stroke-opacity=".18" stroke-width="2"/><line x1="140" y1="536" x2="1060" y2="536" stroke="#ffffff" stroke-opacity=".07" stroke-width="2"/><polygon points="270.0,280.0 365.3,335.0 365.3,445.0 270.0,500.0 174.7,445.0 174.7,335.0" fill="#1f1c36" stroke="#a78bfa" stroke-width="3"/><rect x="232" y="408" width="34" height="34" rx="5" fill="#a78bfa" fill-opacity=".35" stroke="#a78bfa" stroke-width="2"/><rect x="274" y="408" width="34" height="34" rx="5" fill="#a78bfa" fill-opacity=".35" stroke="#a78bfa" stroke-width="2"/><rect x="253" y="366" width="34" height="34" rx="5" fill="#a78bfa" fill-opacity=".2" stroke="#a78bfa" stroke-width="2" stroke-dasharray="4 4"/><path d="M270 318 v30" stroke="#a78bfa" stroke-width="2" stroke-dasharray="3 5"/><polygon points="975.2,281.0 1039.0,344.8 1039.0,435.2 975.2,499.0 884.8,499.0 821.0,435.2 821.0,344.8 884.8,281.0" fill="#0b2833" stroke="#22d3ee" stroke-width="3"/><circle cx="915" cy="378" r="42" fill="none" stroke="#22d3ee" stroke-width="3"/><path d="M945 408l34 34" stroke="#22d3ee" stroke-width="5" stroke-linecap="round"/><path d="M896 378l13 13 25 -25" fill="none" stroke="#4ade80" stroke-width="3.4" stroke-linecap="round" stroke-linejoin="round"/><rect x="560" y="300" width="14" height="220" rx="4" fill="#161b22" stroke="#8b949e" stroke-width="1.6"/><rect x="626" y="300" width="14" height="220" rx="4" fill="#161b22" stroke="#8b949e" stroke-width="1.6"/><path d="M574 330h52" stroke="#4ade80" stroke-width="4" stroke-linecap="round"/><path d="M574 420l52 30" stroke="#fbbf24" stroke-width="4" stroke-linecap="round"/><path d="M390 390 H548" fill="none" stroke="#a78bfa" stroke-width="2.6" marker-end="url(#ah)"/><path d="M652 330 C 720 330, 740 270, 800 250" fill="none" stroke="#4ade80" stroke-width="2.8" marker-end="url(#ahG)"/><path d="M590 470 C 560 600, 330 600, 280 512" fill="none" stroke="#fbbf24" stroke-width="2.6" stroke-dasharray="9 7" marker-end="url(#ahA)"/>
<rect width="1200" height="675" fill="url(#fade)"/>
</svg>
